<svg xmlns="http://www.w3.org/2000/svg" version="1.1" xmlns:xlink="http://www.w3.org/1999/xlink" xmlns:svgjs="http://svgjs.dev/svgjs" width="1000" height="1000"><g clip-path="url(#SvgjsClipPath1126)"><rect width="1000" height="1000" fill="#ffffff"></rect><g transform="matrix(13.88888888888889,0,0,13.88888888888889,0,0)"><svg xmlns="http://www.w3.org/2000/svg" version="1.1" xmlns:xlink="http://www.w3.org/1999/xlink" xmlns:svgjs="http://svgjs.dev/svgjs" width="72" height="72"><svg viewBox="0 0 72 72" xmlns="http://www.w3.org/2000/svg"><path d="m45.2166 41.9535 12.3501-2.627-13.9126-3.3867c-.3823-.0928-.6743-.4014-.7466-.7871-.0722-.3867.0884-.7793.4107-1.0049l7.4394-5.1904-9.5825 2.3193c-.3374.083-.6885-.0166-.935-.2568-.2461-.2412-.3511-.5928-.2769-.9297l3.0767-14.0156-6.5877 10.0973c-1.258-1.4266-2.7796-3.7659-2.9504-4.0798l-6.9072-12.6826c-.233-.4287-.7427-.623-1.2002-.4687-.461.1572-.7417.623-.6661 1.1035l2.5083 15.8828-9.9941-5.6963c-.4092-.2314-.9268-.1484-1.2407.2031-.314.3506-.3404.8741-.0625 1.2549l7.3178 10.0361-12.7041 2.2588c-.4594.0821-.8017.4707-.8237.9375-.022.4659.2818.8858.732 1.0108l13.3603 3.7031-7.8657 7.1602c-.3545.3232-.4302.8525-.1792 1.2617.186.3037.5127.4775.853.4775.1177 0 .2368-.0205.3525-.0644l11.6056-4.3468c-.051 1.9261-.1086 3.5125-.0943 3.714l2.7734 10.7334 6.2808-14.1553c.1504-.3389.4756-.5674.8457-.5928.372-.0215.7236.1563.9184.4717l6.0591 9.7803-.9429-11.0577c-.0424-.5019.2955-.958.7886-1.0634z" fill="#fcea2b"></path><path d="m30.5555 63.641c-.0571 0-.1148-.0049-.1729-.0147-.4521-.0791-.7924-.456-.8252-.914l-1.0791-15.1065c-.039-.5508.3755-1.0293.9263-1.0684.5615-.0322 1.0298.376 1.0689.9258l.7934 11.1075 6.2808-14.1553c.1504-.3389.4756-.5674.8457-.5928.372-.0215.7236.1563.9184.4717l6.0591 9.7803-.9429-11.0577c-.0424-.5019.2955-.958.7886-1.0634l12.3501-2.627-13.9126-3.3867c-.3823-.0928-.6743-.4014-.7466-.7871-.0722-.3867.0884-.7793.4107-1.0049l7.4394-5.1904-9.5825 2.3193c-.3374.083-.6885-.0166-.935-.2568-.2461-.2412-.3511-.5928-.2769-.9297l3.0767-14.0156-7.3111 11.206c-.3012.4629-.9214.5918-1.3838.292-.4624-.3018-.5927-.9219-.291-1.3838l10.2969-15.7842c.2637-.4052.7798-.5625 1.2241-.3759.4453.1865.6934.665.5899 1.1367l-3.9053 17.791 13.1968-3.1934c.4638-.1172.9497.1221 1.1469.5606.1978.4385.0552.956-.3393 1.2314l-9.9844 6.9658 16.021 3.8995c.4536.1103.7705.5195.7637.9863-.0069.4668-.3355.8662-.792.9639l-15.7764 3.3564 1.2232 14.3438c.039.4609-.2432.8886-.6822 1.0341-.4389.1446-.9204-.0293-1.1645-.4228l-7.2642-11.7256-7.1391 16.0898c-.1626.3662-.524.5948-.9136.5948z"></path><path d="m16.6297 48.5345c-.3403 0-.667-.1738-.853-.4775-.251-.4092-.1753-.9385.1792-1.2617l7.8657-7.1602-13.3603-3.7031c-.4502-.125-.754-.5449-.732-1.0108.022-.4668.3643-.8554.8237-.9375l12.7041-2.2588-7.3178-10.0361c-.2779-.3808-.2515-.9043.0625-1.2549.3139-.3515.8315-.4345 1.2407-.2031l9.9941 5.6963-2.5083-15.8828c-.0756-.4805.2051-.9463.6661-1.1035.4575-.1543.9672.04 1.2002.4687l6.9072 12.6826c.2641.4854.0849 1.0928-.3999 1.3565-.4868.2656-1.0928.0859-1.357-.3994l-4.1381-7.5987 1.9296 12.2198c.0601.3798-.103.7607-.4194.9785-.3164.2187-.7305.2344-1.0635.0469l-7.7519-4.419 5.5146 7.5635c.2032.2783.2486.6416.1197.9619-.1285.3203-.4131.5508-.7525.6113l-9.9424 1.7676 10.8604 3.0107c.3511.0977.6211.378.7056.7325.0844.3535-.0303.7256-.2994.9707l-5.3349 4.8564 7.6128-2.873c.5156-.1944 1.0937.0644 1.2885.582.1949.5176-.0659 1.0938-.5825 1.2891l-12.5093 4.7207c-.1157.0439-.2348.0644-.3525.0644z"></path></svg></svg></g></g><defs><clipPath id="SvgjsClipPath1126"><rect width="1000" height="1000" x="0" y="0" rx="200" ry="200"></rect></clipPath></defs></svg>